<svg id="Capa_1" data-name="Capa 1" xmlns="http://www.w3.org/2000/svg" viewBox="0 0 277.64 283.06"><title>Nathan silueta</title><path d="M261.29,218.18a36.24,36.24,0,0,0-1.88-10.28c-4.89-13.94-12.05-26.79-19.51-39.46a26.93,26.93,0,0,0-12.38-10.59c-12.38-5.66-24.48-12-37.24-16.75-6.19-2.32-9.65-6.09-9.42-13.1.17-5.22-2-7.25-7.07-7.7-2.75-.24-4.55-1.39-5-4.1-1.2-6.63-2.28-13.29-2-20.08.06-1.63.57-3,2.14-3.64,5.32-2.09,7.23-6.49,8.25-11.63.51-2.57,1.38-5.06,2-7.6.88-3.65,1-7.15-1.88-10.16-2.27-2.37-2.59-5.34-2-8.41.29-1.6.8-3.15,1.21-4.72,2.19-8.48,1.2-16.06-5.81-22.2-2.81-2.46-5.26-5.33-7.9-8C156.9,13.92,151.18,8,144.23,3.42c-4.58-3-9.55-4.36-15-2.71A19.88,19.88,0,0,1,118.55,1c-8-1.91-15.13-.85-20.77,5.78-1.67,2-4.12,2.74-6.46,3.65-6.48,2.51-9.86,7.35-10.57,14.18-.1,1-.23,2-.38,3-1.44,9.06-1.32,17.83,3.33,26.21a32,32,0,0,1,4.44,15A240.41,240.41,0,0,0,90.55,99c1.51,11.2,6.46,21.3,10.16,31.8.32.9.69,1.59.05,2.35-4.92,5.94-9.24,12.69-17.12,15.17-11.28,3.55-21.67,9-32,14.56-2.9,1.56-6.28,2.59-8.33,5.49-4.58,6.45-9.08,13-12.15,20.33-5.54,13.3-9,27.24-12.62,41.13-1.7,6.52-2.62,13.28-6.11,20a4.91,4.91,0,0,1-.25.93,19.58,19.58,0,0,1-.65,3.06c-.68,2.16-2,4.05-2.72,6.17a5.56,5.56,0,0,1-1.33,2.1c-.13.58-.46,1.26-.7,2-2.13,6.38-5.12,12.45-6.76,19H4.5c.28-.7.54-1.4.85-2.08C17,255.45,25.66,228.82,32.5,201.69c2.72-10.78,6.64-20.57,12.89-29.6,1.65-2.38,3.46-4,6.5-4.5a46.05,46.05,0,0,0,13.75-4.77c5.67-2.91,11.32-5.86,17-8.65,5-2.45,10.07-5.16,14.69.9a2.46,2.46,0,0,0,3.71,0c1.07-1.17.17-2.31-.68-3.29a18.08,18.08,0,0,1-1.89-2.32,5.36,5.36,0,0,1,2.15-7.95c2.11-1.17,3.56-.92,4.12,1.69a54.07,54.07,0,0,0,15.29,27.84,5.55,5.55,0,0,1,1.79,5.1c-1.32,7.33-1.65,14.82-3.82,22a97.94,97.94,0,0,0-3.22,19.18c-.11,1.2-.51,2.64,1.25,3.66.91-3.65,1.58-7.07,2.63-10.36,2.91-9.19,3.22-18.85,5.26-28.19,1.2-5.48,3.19-10.53,8.41-13.05s8.71-6.36,12-10.85c6.62-9,15.05-16.37,22.11-25,1.8-2.19,4-4.18,4.58-7.17.26-1.41.36-2.91,2.31-2.71a3.36,3.36,0,0,1,3.19,2.75c.72,3.92,1.28,7.88,1.87,11.82s-1,7.06-4.33,9.26c-4.06,2.71-8.14,5.37-12.18,8.09-.92.62-2,1.07-2.51,2.18-.26.58-.47,1.28.15,1.69a1.46,1.46,0,0,0,1.35,0c6.33-4.15,13.73-6.8,18.46-13.19,3.44-4.64,3.44-4.61,8.77-2,11.86,5.89,23.62,12,35.63,17.55a33,33,0,0,1,15.1,13.46,157.2,157.2,0,0,1,14.65,31.54c1.3,4,2.9,8,4.46,11.93.45,1.12,1.16,2.63,2.57,2.28S261.34,219.21,261.29,218.18ZM168.71,45.82c1.51-.25,1.87.77,2.18,2a31.9,31.9,0,0,1,.53,11.14c-.31,3.17-3.2,2.59-5.28,2.93s-1.86-1.54-2-2.76a26.38,26.38,0,0,0-5.53-13.28c-1.54-1.86-2-3.56-.37-5.66,2.62-3.44,1-7.07.2-10.74a16.19,16.19,0,0,1,7.75,13.52C166.23,44.79,166.27,46.23,168.71,45.82ZM88.22,48.19c0,.58-.1,1.16-.15,1.73-1.75-8-3.41-16-3.07-24.22a4.22,4.22,0,0,1,1.36-3c6.59-5.9,12.79-12.29,21.06-16,5.26-2.37,10.16-1.58,15.16.71,2.71,1.25,5.73,2.89,6.92-1.95a1.88,1.88,0,0,1,2.53-1c4.43,1.28,8.87,2.53,13.22,4,1.22.42,3.48.83,1.62,3.32-1,1.32.5,2.13,1.62,2.14,4.17,0,6.45,2.88,8.84,5.62,1.56,1.78,2.84,3.81,4.86,5.17.63.43,1.85.92.91,2-.73.81-1.66.19-2.35-.33-4.43-3.29-9.7-4.51-14.81-6.12a59.92,59.92,0,0,0-35-.85C96.37,23.46,88.91,33,88.22,48.19Zm3.69,22.65c-.88-10.17,2.83-14.66,13-15.54,1.35-.11,4,1.12,3.82-1.43A4.24,4.24,0,0,0,104,50c-3.11.13-5.64,1.86-8.22,3.4-1,.59-1.85,2.15-3.2,1.25-1.12-.75-.8-2.28-.85-3.51-.52-12.63,5.28-21.6,17.08-26.17a47.17,47.17,0,0,1,8.61-2.52c4.29-.76,8.54-2,12.46-1.65,10.5-.47,17.71,5.13,24.64,11.2a3.55,3.55,0,0,1,.46,5.11c-2.67,3.41-2,6.67-.05,10.07,2.55,4.46,5.85,9.19,4.57,14.32-1.86,7.53.59,14.4,1.15,21.59.91,11.64-3.23,21.88-11.84,30-4,3.74-7,3.68-10.87.25-4.14-3.65-8.17-6.34-13.53-2.06-1.47,1.16-1.8-.31-2-1.53-.3-2.36,1.28-4,2.27-5.8.58-1.08,1.52-2.33.61-3.44s-2.36-.16-3.46.21a9.57,9.57,0,0,0-6.73,7.81,7.23,7.23,0,0,1-3.68,5.34c-3.26,1.86-5.75,1.68-8.44-1.4A41.49,41.49,0,0,1,92.47,85.81C92.28,80.82,92.33,75.81,91.91,70.84Zm7.76,44.55c7.39,6.6,8.08,5,16.56-.27,1-.59,1.57-2.28,2.89-.44,1.65,2.3,3.8,2,6,1,3.87-1.6,7.35-1.5,10.78,1.44,5.94,5.1,7.27,5,13.64.37.6-.44,1.15-1,1.74-1.42,1.56-1.19,2.57-4.18,5.09-2.6s1.24,4.15.52,6.18c-3.17,8.9-7.64,16.82-16.44,21.45-2.35,1.24-4.17,1.63-5.2-1.52-.7-2.1-2.07-1.36-3.21-.42-1.6,1.33-3,1.54-4.53-.13-1.35-1.46-2.68-.86-3.83.43a28.26,28.26,0,0,1-2.23,2.52c-2.36,2.08-4.55,1.88-5.7-.95-1.65-4.08-4.78-6.61-8.08-9.1C102.42,128,101.05,122.25,99.67,115.39Zm62.56,18.21c-9.38,10.37-19,20.53-28.53,30.75a15.11,15.11,0,0,1-2.28,1.93c-5.67,4.13-9,3.48-12.46-2.56-2.73-4.76-5.34-9.6-8-14.42a16.5,16.5,0,0,1-1.57-3.39c-.47-1.71-2-4-.19-5.15,2.26-1.44,3,1.56,4.09,2.74,4.45,4.75,5.13,5,10.23,1.54,1.64-1.12,2.35-.57,3.34.63,1.51,1.84,3.27,2.4,5,.35,1.09-1.28,2.12-.91,3.31-.29,3.95,2.05,7.69,1,10.87-1.47,9-7.09,15.29-15.65,14.76-27.93A50.48,50.48,0,0,1,163.13,99c-.1,7.42,0,14.71,2.58,21.84C167.43,125.63,165.43,130.07,162.23,133.6Zm3.67-47c-2.42-2.73-3.13-13.17-.93-16.14,1.68-2.27,4.17-1.71,6.53-1.47,1.11.11,2.65,1.81,3.18.2s-.84-3.33-2.69-3.87a18,18,0,0,0-3.68-.29c4.22-2.82,7.71-1.42,8.37,3.25A16.47,16.47,0,0,1,175.17,77c-1.18,2.87-2.34,5.75-3.51,8.64S168,88.86,165.9,86.56Z"/><path d="M48,283.06c-3.87-10.15-8.3-20.1-10.92-30.73C43.94,260,46.36,270,51.54,278.6q-1.95-12.53-3.88-25.05l1.29-.23c4.69,9.31,5.18,19.63,6.55,29.74Z"/><path d="M274.5,283.06c-3.68-18.18-7.05-36.42-12-54.33-.42-1.54-2.23-4.18.1-4.86,2.76-.8,2.57,2.5,2.95,4.17,3.95,17.35,8.44,34.58,11.77,52.08a6,6,0,0,1,.16,2.94Z"/><path d="M202.5,283.06a198.8,198.8,0,0,0,8.08-25.21c1.39-5.46,3.79-9,7.74-11.7-4.23,12.57-7.88,24.41-8.32,36.91Z"/><path d="M105,283.06q2.34-13.43,4.69-26.85a115.22,115.22,0,0,1,3.23-14.38,74.44,74.44,0,0,1-6.42,41.23Z"/><path d="M144.75,283.06l2.79-32.82a73,73,0,0,1,1.37-10.35,154.16,154.16,0,0,1-.41,43.17Z"/><path d="M155.49,237.4c4.93-2.37,9.91-1.66,14.9-.69,7.79,1.52,14.88,5,22.22,7.84,3,1.16,6.14,2.07,9.22,3.1,1.9.63,2.94.13,2.64-2.06-1.47-10.89-.18-22-2.14-32.85-.39-2.15-1.68-4.16-1.23-7.19,3.67,4.27,4.27,8.84,4.66,13.5.67,8,.33,16,1.37,23.92a37.16,37.16,0,0,0,2.33,8.64c.26.67.85,1.39.21,2.06s-1.41.29-2.11.05c-3.31-1.14-6.64-2.21-9.91-3.44C183.9,245.13,170.51,238.8,155.49,237.4Z"/><path d="M27,234a125.88,125.88,0,0,1-7.48,37.89l-1.41-.28,7.53-37.88Z"/><path d="M134.62,178.09c3.08-5.25,6.86-8.16,11-10.72,2.1-1.3,4.5-2.16,6.11-4.18.81-1,1.79-1.8,3.19-1.15a2.52,2.52,0,0,1,1.48,2.4,2.75,2.75,0,0,1-2.08,2.77,60.45,60.45,0,0,0-12.48,6.57C139.8,175.1,138.23,177.15,134.62,178.09Z"/><path d="M224.56,216.24c-.92,5.84-1.76,11.2-2.61,16.56q-.49,3.12-1.08,6.24c-.14.75-.42,1.45-1.39,1.46s-1.57-.41-1.46-1.29c.95-7.67-.19-15.84,5.26-22.45A8.91,8.91,0,0,1,224.56,216.24Z"/><path d="M39,198.93c5.44,4.94,10,23.56,7,29.27C43.06,218.27,42.41,208.27,39,198.93Z"/><path d="M117.48,173.28c-5.54-.3-9.25-3.39-12.22-7.53a2.4,2.4,0,0,1,.66-3.62c1.19-.74,2.18-.1,2.87.92A59,59,0,0,0,117.48,173.28Z"/><path d="M152.56,57.17c-3.43-2.13-5.2-4.74-8.18-6-5.36-2.26-10.3,0-15.41.59a17.91,17.91,0,0,1-3.31.4c-1.62-.1-2.37-1.31-2.51-2.79-.15-1.64,1-2.12,2.39-2.26a66.22,66.22,0,0,1,19.73.6C149.54,48.56,151.07,52.37,152.56,57.17Z"/></svg>